<svg width="54" height="50" viewBox="0 0 54 50" fill="none" xmlns="http://www.w3.org/2000/svg">
<g clip-path="url(#clip0_49131_514)">
<path d="M32.8335 13.4993V13.9993H33.3335H36.5002C37.9657 13.9993 39.1668 15.2005 39.1668 16.666V35.666C39.1668 37.1315 37.9657 38.3327 36.5002 38.3327H17.5002C16.0346 38.3327 14.8335 37.1315 14.8335 35.666V16.666C14.8335 15.2005 16.0346 13.9993 17.5002 13.9993H20.6668H21.1668V13.4993C21.1668 10.2763 23.7771 7.66602 27.0002 7.66602C30.2232 7.66602 32.8335 10.2763 32.8335 13.4993ZM30.1668 13.9993H30.6668V13.4993C30.6668 11.4815 29.018 9.83268 27.0002 9.83268C24.9824 9.83268 23.3335 11.4815 23.3335 13.4993V13.9993H23.8335H30.1668ZM36.5002 36.166H37.0002V35.666V16.666V16.166H36.5002H33.3335H32.8335V16.666V19.8327C32.8335 20.4274 32.3449 20.916 31.7502 20.916C31.1555 20.916 30.6668 20.4274 30.6668 19.8327V16.666V16.166H30.1668H23.8335H23.3335V16.666V19.8327C23.3335 20.4274 22.8449 20.916 22.2502 20.916C21.6555 20.916 21.1668 20.4274 21.1668 19.8327V16.666V16.166H20.6668H17.5002H17.0002V16.666V35.666V36.166H17.5002H36.5002Z" fill="url(#paint0_linear_49131_514)" stroke="url(#paint1_linear_49131_514)"/>
</g>
<defs>
<linearGradient id="paint0_linear_49131_514" x1="24.9184" y1="3.366" x2="61.7641" y2="7.26904" gradientUnits="userSpaceOnUse">
<stop stop-color="#EF1818"/>
<stop offset="1" stop-color="#326589"/>
</linearGradient>
<linearGradient id="paint1_linear_49131_514" x1="24.9184" y1="3.366" x2="61.7641" y2="7.26904" gradientUnits="userSpaceOnUse">
<stop stop-color="#EF1818"/>
<stop offset="1" stop-color="#326589"/>
</linearGradient>
<clipPath id="clip0_49131_514">
<rect width="38" height="38" fill="white" transform="translate(8 4)"/>
</clipPath>
</defs>
</svg>
