<svg xmlns="http://www.w3.org/2000/svg" xmlns:xlink="http://www.w3.org/1999/xlink" width="40" zoomAndPan="magnify" viewBox="0 0 30 30.000001" height="40" preserveAspectRatio="xMidYMid meet" version="1.0"><defs><clipPath id="c56b73d6e0"><path d="M 0.484375 0 L 29.515625 0 L 29.515625 29.03125 L 0.484375 29.03125 Z M 0.484375 0 " clip-rule="nonzero"/></clipPath><clipPath id="e2b6ad980a"><path d="M 5 0 L 25 0 L 25 29.03125 L 5 29.03125 Z M 5 0 " clip-rule="nonzero"/></clipPath></defs><g clip-path="url(#c56b73d6e0)"><path fill="#ffffff" d="M 0.484375 0 L 29.515625 0 L 29.515625 36.289062 L 0.484375 36.289062 Z M 0.484375 0 " fill-opacity="1" fill-rule="nonzero"/><path fill="#ffffff" d="M 0.484375 0 L 29.515625 0 L 29.515625 29.03125 L 0.484375 29.03125 Z M 0.484375 0 " fill-opacity="1" fill-rule="nonzero"/><path fill="#ffffff" d="M 0.484375 0 L 29.515625 0 L 29.515625 29.03125 L 0.484375 29.03125 Z M 0.484375 0 " fill-opacity="1" fill-rule="nonzero"/></g><g clip-path="url(#e2b6ad980a)"><path fill="#ed1c24" d="M 23.378906 14.238281 L 22.125 12.0625 C 22.242188 12.726562 22.3125 13.386719 22.339844 14.042969 C 22.441406 16.566406 21.894531 18.964844 20.707031 21.164062 C 19.289062 23.800781 16.980469 26.066406 14.03125 27.722656 C 14.027344 27.726562 14.019531 27.730469 14.015625 27.734375 C 13.417969 28.066406 13.617188 28.972656 14.300781 29.011719 C 14.382812 29.015625 14.464844 29.019531 14.546875 29.023438 C 14.601562 29.027344 14.652344 29.027344 14.707031 29.027344 C 14.804688 29.027344 14.902344 29.027344 15 29.027344 C 15.054688 29.027344 15.105469 29.027344 15.160156 29.023438 C 18.449219 28.917969 21.609375 27.160156 23.375 24.097656 L 23.539062 23.8125 C 25.082031 20.910156 25.140625 17.296875 23.378906 14.238281 Z M 19.292969 8.808594 L 17.953125 5.914062 C 18.105469 7.125 18.003906 8.324219 17.652344 9.535156 C 17.070312 11.542969 15.917969 13.261719 14.800781 14.925781 C 14.074219 16.003906 13.394531 17.011719 12.941406 18.003906 C 11.367188 21.433594 15.949219 24.261719 18.316406 21.320312 C 18.53125 21.050781 18.734375 20.773438 18.925781 20.484375 C 21.09375 17.199219 21.222656 13.164062 19.292969 8.808594 Z M 9.890625 27.683594 C 9.066406 27.136719 7.21875 25.636719 6.332031 24.097656 L 6.160156 23.796875 C 5.015625 21.640625 4.820312 18.375 5.425781 16.121094 C 5.632812 15.34375 5.972656 14.71875 6.328125 14.238281 C 14.851562 2.6875 14.53125 0.00390625 14.53125 0.00390625 C 17.722656 5.476562 15.394531 9.714844 13.144531 13.8125 C 11.914062 16.054688 10.753906 18.171875 10.632812 20.34375 C 10.566406 21.542969 10.824219 22.644531 11.414062 23.710938 C 11.535156 23.925781 11.648438 24.144531 11.808594 24.339844 C 13.828125 26.816406 10.492188 28.078125 9.890625 27.683594 " fill-opacity="1" fill-rule="nonzero"/></g></svg>